<svg width="40" height="40" viewBox="0 0 40 40" fill="none" xmlns="http://www.w3.org/2000/svg">
<path d="M0 4C0 1.79086 1.79086 0 4 0H36C38.2091 0 40 1.79086 40 4V36C40 38.2091 38.2091 40 36 40H4C1.79086 40 0 38.2091 0 36V4Z" fill="#F2B90F"/>
<path d="M9.66683 11.5466C9.80016 11.7199 17.3202 21.3199 17.3202 21.3199V29.3333C17.3202 30.0666 17.9202 30.6666 18.6668 30.6666H21.3468C22.0802 30.6666 22.6935 30.0666 22.6935 29.3333V21.3066C22.6935 21.3066 30.0135 11.9466 30.3602 11.5199C30.7068 11.0933 30.6668 10.6666 30.6668 10.6666C30.6668 9.93325 30.0668 9.33325 29.3202 9.33325H10.6802C9.86683 9.33325 9.3335 9.97325 9.3335 10.6666C9.3335 10.9333 9.4135 11.2533 9.66683 11.5466Z" fill="#141927"/>
<path d="M4 2H36V-2H4V2ZM38 4V36H42V4H38ZM36 38H4V42H36V38ZM2 36V4H-2V36H2ZM4 38C2.89543 38 2 37.1046 2 36H-2C-2 39.3137 0.686293 42 4 42V38ZM38 36C38 37.1046 37.1046 38 36 38V42C39.3137 42 42 39.3137 42 36H38ZM36 2C37.1046 2 38 2.89543 38 4H42C42 0.686291 39.3137 -2 36 -2V2ZM4 -2C0.686291 -2 -2 0.686293 -2 4H2C2 2.89543 2.89543 2 4 2V-2Z" fill="#141927"/>
</svg>
