<svg width="24" height="24" viewBox="0 0 24 24" fill="none" xmlns="http://www.w3.org/2000/svg">
<path d="M6.70284 3.74713L10.2431 2L10.8408 2.5977L7.25456 6.27586L8.72583 7.88506L12.45 4.25287L13.1396 4.94253L11.3005 8.62069L12.7718 10.2299L12.0822 10.9655L12.9557 11.8527L13.9982 12.9115L15.0247 13.954L16.0511 14.9965L17.1004 16.0622L18.1269 17.1047L19.1533 18.1472L20.157 19.1665L20.9097 19.931L18.7948 22L9.92123 13.1724L9.13962 13.954L6.88675 11.7931C6.04819 12.5468 5.56414 12.5867 4.67985 12.069L6.75852 10.1017L5.23158 8.57471L3.30054 10.4138C2.97832 9.96179 2.91223 9.66871 3.11663 9.03448L4.40399 7.6092L3.5764 6.82759L6.70284 3.74713Z" fill="#141927"/>
<path d="M8.72583 7.88506L7.25456 6.27586L10.8408 2.5977L10.2431 2L6.70284 3.74713L3.5764 6.82759L4.40399 7.6092L3.11663 9.03448C2.91223 9.66871 2.97832 9.96179 3.30054 10.4138L5.23158 8.57471L6.75852 10.1017M8.72583 7.88506L12.45 4.25287L13.1396 4.94253L11.3005 8.62069L12.7718 10.2299L12.0822 10.9655M8.72583 7.88506L8.49594 8.62069L11.4385 11.6092L12.0822 10.9655M12.0822 10.9655L12.9557 11.8527M9.92123 13.1724L18.7948 22L20.9097 19.931L20.157 19.1665M9.92123 13.1724L10.335 12.7126L7.25456 9.63218L6.75852 10.1017M9.92123 13.1724L9.13962 13.954L6.88675 11.7931C6.04819 12.5468 5.56414 12.5867 4.67985 12.069L6.75852 10.1017M12.0822 12.7126L12.9557 11.8527M12.9557 11.8527L13.9982 12.9115M13.3235 13.5862L13.9982 12.9115M13.9982 12.9115L15.0247 13.954M14.1511 14.8276L15.0247 13.954M15.0247 13.954L16.0511 14.9965M15.3925 15.6552L16.0511 14.9965M16.0511 14.9965L17.1004 16.0622M16.2201 16.9425L17.1004 16.0622M17.1004 16.0622L18.1269 17.1047M17.5074 17.7241L18.1269 17.1047M18.1269 17.1047L19.1533 18.1472M18.289 19.0115L19.1533 18.1472M19.1533 18.1472L20.157 19.1665M19.5304 19.7931L20.157 19.1665" stroke="#F9F9F9" stroke-linecap="round" stroke-linejoin="round"/>
</svg>
