<svg width="24" height="24" viewBox="0 0 24 24" fill="none" xmlns="http://www.w3.org/2000/svg">
<path fill-rule="evenodd" clip-rule="evenodd" d="M14.82 3H19C20.1 3 21 3.9 21 5V19C21 20.1 20.1 21 19 21H5C3.9 21 3 20.1 3 19V5C3 3.9 3.9 3 5 3H9.18C9.6 1.84 10.7 1 12 1C13.3 1 14.4 1.84 14.82 3ZM13 4C13 3.45 12.55 3 12 3C11.45 3 11 3.45 11 4C11 4.55 11.45 5 12 5C12.55 5 13 4.55 13 4ZM8 13.5C8 13.2239 8.22386 13 8.5 13H9.5C9.77614 13 10 13.2239 10 13.5V16.5C10 16.7761 9.77614 17 9.5 17H8.5C8.22386 17 8 16.7761 8 16.5V13.5ZM11.5 9C11.2239 9 11 9.22386 11 9.5V16.5C11 16.7761 11.2239 17 11.5 17H12.5C12.7761 17 13 16.7761 13 16.5V9.5C13 9.22386 12.7761 9 12.5 9H11.5ZM14 10.5C14 10.2239 14.2239 10 14.5 10H15.5C15.7761 10 16 10.2239 16 10.5V16.5C16 16.7761 15.7761 17 15.5 17H14.5C14.2239 17 14 16.7761 14 16.5V10.5ZM8 7.5H16C16.8284 7.5 17.5 8.17157 17.5 9V17C17.5 17.8284 16.8284 18.5 16 18.5H8C7.17157 18.5 6.5 17.8284 6.5 17V9C6.5 8.17157 7.17157 7.5 8 7.5ZM6 9C6 7.89543 6.89543 7 8 7H16C17.1046 7 18 7.89543 18 9V17C18 18.1046 17.1046 19 16 19H8C6.89543 19 6 18.1046 6 17V9Z" fill="#141927"/>
</svg>
