<svg width="24" height="24" viewBox="0 0 24 24" fill="none" xmlns="http://www.w3.org/2000/svg">
<path d="M19.9299 8.35006L16.3299 10.0301L13.9999 7.70006V6.30006L16.3299 3.97006L19.9299 5.65006C20.3099 5.83006 20.7499 5.66006 20.9299 5.29006C21.1099 4.91006 20.9399 4.47006 20.5699 4.29006L16.6499 2.46006C16.2699 2.28006 15.8199 2.36006 15.5199 2.66006L13.7799 4.40006C13.5999 4.16006 13.3199 4.00006 12.9999 4.00006C12.4499 4.00006 11.9999 4.45006 11.9999 5.00006V6.00006H8.81991C8.33991 4.66006 6.95991 3.75006 5.39991 4.06006C4.22991 4.29006 3.26991 5.25006 3.04991 6.42006C2.79991 7.76006 3.44991 8.96006 4.47991 9.58006L7.07991 18.0001H5.49991C4.66991 18.0001 3.99991 18.6701 3.99991 19.5001C3.99991 20.3301 4.66991 21.0001 5.49991 21.0001H15.4999C16.3299 21.0001 16.9999 20.3301 16.9999 19.5001C16.9999 18.6701 16.3299 18.0001 15.4999 18.0001H13.3799L8.40991 8.77006C8.57991 8.53006 8.71991 8.28006 8.81991 8.00006H11.9999V9.00006C11.9999 9.55006 12.4499 10.0001 12.9999 10.0001C13.3199 10.0001 13.5999 9.84006 13.7799 9.60006L15.5199 11.3401C15.8199 11.6401 16.2699 11.7201 16.6499 11.5401L20.5699 9.71006C20.9499 9.53006 21.1099 9.09006 20.9299 8.71006C20.7499 8.34006 20.3099 8.17006 19.9299 8.35006ZM5.99991 8.00006C5.44991 8.00006 4.99991 7.55006 4.99991 7.00006C4.99991 6.45006 5.44991 6.00006 5.99991 6.00006C6.54991 6.00006 6.99991 6.45006 6.99991 7.00006C6.99991 7.55006 6.54991 8.00006 5.99991 8.00006Z" fill="#141927"/>
</svg>
