<svg width="24" height="24" viewBox="0 0 24 24" fill="none" xmlns="http://www.w3.org/2000/svg">
<g clip-path="url(#clip0)">
<path d="M14.1875 3.21686H10.9219C10.5938 2.31061 9.73438 1.65436 8.71875 1.65436C7.70312 1.65436 6.84375 2.31061 6.51563 3.21686H3.25C2.39062 3.21686 1.6875 3.91998 1.6875 4.77936V15.7169C1.6875 16.5762 2.39062 17.2794 3.25 17.2794H14.1875C15.0469 17.2794 15.75 16.5762 15.75 15.7169V4.77936C15.75 3.91998 15.0469 3.21686 14.1875 3.21686ZM8.71875 3.21686C9.14844 3.21686 9.5 3.56842 9.5 3.99811C9.5 4.4278 9.14844 4.77936 8.71875 4.77936C8.28906 4.77936 7.9375 4.4278 7.9375 3.99811C7.9375 3.56842 8.28906 3.21686 8.71875 3.21686ZM10.2812 14.1544H4.8125V12.5919H10.2812V14.1544ZM12.625 11.0294H4.8125V9.46686H12.625V11.0294ZM12.625 7.90436H4.8125V6.34186H12.625V7.90436Z" fill="#141927"/>
<g filter="url(#filter0_d)">
<path d="M21.2091 18.0408C21.2292 17.8902 21.2393 17.7346 21.2393 17.569C21.2393 17.4083 21.2292 17.2477 21.2041 17.0971L22.2231 16.304C22.3135 16.2337 22.3386 16.0982 22.2834 15.9978L21.3196 14.3312C21.2593 14.2207 21.1338 14.1856 21.0234 14.2207L19.8237 14.7026C19.5727 14.5119 19.3066 14.3513 19.0105 14.2308L18.8298 12.9558C18.8097 12.8353 18.7093 12.7499 18.5888 12.7499H16.6612C16.5407 12.7499 16.4453 12.8353 16.4253 12.9558L16.2446 14.2308C15.9484 14.3513 15.6773 14.5169 15.4313 14.7026L14.2316 14.2207C14.1212 14.1806 13.9957 14.2207 13.9354 14.3312L12.9767 15.9978C12.9164 16.1032 12.9365 16.2337 13.0369 16.304L14.0559 17.0971C14.0308 17.2477 14.0107 17.4133 14.0107 17.569C14.0107 17.7246 14.0208 17.8902 14.0459 18.0408L13.0269 18.8339C12.9365 18.9042 12.9114 19.0398 12.9666 19.1402L13.9304 20.8067C13.9907 20.9172 14.1162 20.9523 14.2266 20.9172L15.4263 20.4353C15.6773 20.626 15.9434 20.7867 16.2395 20.9071L16.4202 22.1822C16.4453 22.3026 16.5407 22.388 16.6612 22.388H18.5888C18.7093 22.388 18.8097 22.3026 18.8247 22.1822L19.0054 20.9071C19.3016 20.7867 19.5727 20.626 19.8187 20.4353L21.0184 20.9172C21.1288 20.9573 21.2543 20.9172 21.3146 20.8067L22.2784 19.1402C22.3386 19.0297 22.3135 18.9042 22.2181 18.8339L21.2091 18.0408ZM17.625 19.3761C16.6311 19.3761 15.8179 18.5629 15.8179 17.569C15.8179 16.575 16.6311 15.7618 17.625 15.7618C18.6189 15.7618 19.4321 16.575 19.4321 17.569C19.4321 18.5629 18.6189 19.3761 17.625 19.3761Z" fill="#141927"/>
</g>
</g>
<defs>
<filter id="filter0_d" x="4.9375" y="4.74994" width="25.375" height="25.638" filterUnits="userSpaceOnUse" color-interpolation-filters="sRGB">
<feFlood flood-opacity="0" result="BackgroundImageFix"/>
<feColorMatrix in="SourceAlpha" type="matrix" values="0 0 0 0 0 0 0 0 0 0 0 0 0 0 0 0 0 0 127 0" result="hardAlpha"/>
<feOffset/>
<feGaussianBlur stdDeviation="4"/>
<feColorMatrix type="matrix" values="0 0 0 0 0.975 0 0 0 0 0.975 0 0 0 0 0.975 0 0 0 0.4 0"/>
<feBlend mode="normal" in2="BackgroundImageFix" result="effect1_dropShadow"/>
<feBlend mode="normal" in="SourceGraphic" in2="effect1_dropShadow" result="shape"/>
</filter>
<clipPath id="clip0">
<rect width="24" height="24" fill="white"/>
</clipPath>
</defs>
</svg>
