<svg width="24" height="24" viewBox="0 0 24 24" fill="none" xmlns="http://www.w3.org/2000/svg">
<path d="M19.454 7.89291L16.8826 1.64291C16.8816 1.64051 16.8801 1.63841 16.8791 1.63601C16.868 1.60962 16.8551 1.584 16.8404 1.55933C16.8393 1.55743 16.8379 1.55567 16.8368 1.55376C16.8229 1.53142 16.8076 1.50995 16.7909 1.48949C16.7873 1.4851 16.7839 1.48064 16.7802 1.47636C16.7625 1.45548 16.7434 1.43574 16.723 1.41727C16.7194 1.41395 16.7154 1.41102 16.7117 1.40777C16.694 1.39256 16.6754 1.37831 16.6561 1.36509C16.6506 1.36135 16.6453 1.35746 16.6397 1.35384C16.6172 1.33939 16.5938 1.32631 16.5696 1.31466C16.5641 1.31207 16.5585 1.30985 16.553 1.30741C16.5314 1.29774 16.5092 1.28926 16.4866 1.28201C16.4814 1.28033 16.4763 1.27842 16.471 1.27686C16.444 1.26897 16.4165 1.26282 16.3886 1.25843C16.3834 1.25763 16.3782 1.25713 16.3731 1.25641C16.3466 1.25284 16.3199 1.25087 16.2932 1.25054C16.2907 1.25053 16.2883 1.25 16.2857 1.25C16.2847 1.25 16.2838 1.25023 16.2828 1.25023C16.254 1.25043 16.2253 1.25255 16.1968 1.25656C16.1897 1.25751 16.1828 1.25881 16.1759 1.25999C16.166 1.26167 16.1562 1.26274 16.1463 1.26488L11.1429 2.34585L11.1429 0.625C11.1429 0.45924 11.0751 0.300269 10.9546 0.183058C10.834 0.0658481 10.6705 -5.34625e-08 10.5 -5.24685e-08C10.3295 -5.14746e-08 10.166 0.0658481 10.0454 0.183058C9.92487 0.300269 9.85714 0.45924 9.85714 0.625L9.85714 2.62363L4.57484 3.76488C4.56154 3.76774 4.54882 3.77171 4.53591 3.77533C4.53034 3.77689 4.52465 3.77811 4.51912 3.77983C4.49231 3.78814 4.4661 3.79815 4.44065 3.80981C4.43602 3.81195 4.43158 3.81432 4.42703 3.81657C4.40439 3.82753 4.38245 3.8398 4.36131 3.8533C4.35778 3.85555 4.35413 3.85761 4.35064 3.85994C4.32733 3.87552 4.30511 3.89259 4.28413 3.91102C4.28025 3.91442 4.27664 3.91804 4.27283 3.92155C4.25492 3.93805 4.238 3.95552 4.22214 3.97389C4.21888 3.97766 4.21543 3.98121 4.21225 3.9851C4.19501 4.00621 4.17919 4.02838 4.16489 4.05148C4.1616 4.05678 4.15858 4.0622 4.15544 4.06758C4.14157 4.09106 4.12929 4.1154 4.11867 4.14044C4.11832 4.14131 4.11777 4.14204 4.11742 4.14292L4.11663 4.14486L4.11549 4.14757L1.54599 10.3929C1.51561 10.4667 1.5 10.5455 1.5 10.625C1.5 12.4463 3.47158 13.125 4.71429 13.125C5.957 13.125 7.92857 12.4463 7.92857 10.625C7.92857 10.5455 7.91296 10.4667 7.88259 10.3929L5.59205 4.82559L9.85714 3.90415L9.85714 13.75L8.57143 13.75C8.40093 13.75 8.23742 13.8158 8.11686 13.9331C7.9963 14.0503 7.92857 14.2092 7.92857 14.375C7.92857 14.5408 7.9963 14.6997 8.11686 14.8169C8.23742 14.9342 8.40093 15 8.57143 15L12.4286 15C12.5991 15 12.7626 14.9342 12.8831 14.8169C13.0037 14.6997 13.0714 14.5408 13.0714 14.375C13.0714 14.2092 13.0037 14.0503 12.8831 13.9331C12.7626 13.8158 12.5991 13.75 12.4286 13.75L11.1429 13.75L11.1429 3.62637L15.2367 2.74189L13.1174 7.89291C13.087 7.96673 13.0714 8.0455 13.0714 8.125C13.0714 9.94629 15.043 10.625 16.2857 10.625C17.5284 10.625 19.5 9.94629 19.5 8.125C19.5 8.0455 19.4844 7.96673 19.454 7.89291ZM2.83523 10.625L4.71429 6.05789L6.59334 10.625L2.83523 10.625ZM14.4067 8.125L16.2857 3.55789L18.1648 8.125L14.4067 8.125Z" fill="#141927"/>
<path d="M17.2373 12.8336L12.7703 15.213C12.6388 15.2833 12.5405 15.4028 12.497 15.5454C12.4535 15.6881 12.4683 15.8421 12.5383 15.9738L15.4461 21.4342C15.5164 21.5657 15.6359 21.664 15.7785 21.7075C15.9211 21.751 16.0751 21.7361 16.2068 21.6662L20.6738 19.2867C20.8053 19.2165 20.9036 19.0969 20.9471 18.9543C20.9906 18.8117 20.9758 18.6576 20.9058 18.5259L17.998 13.0656C17.9277 12.934 17.8082 12.8357 17.6656 12.7923C17.523 12.7488 17.369 12.7636 17.2373 12.8336ZM16.6707 20.1444C16.597 20.1836 16.5134 20.2001 16.4304 20.1918C16.3474 20.1835 16.2687 20.1508 16.2043 20.0978C16.1399 20.0447 16.0927 19.9738 16.0686 19.8939C16.0445 19.8141 16.0446 19.7288 16.069 19.649C16.0933 19.5692 16.1408 19.4985 16.2053 19.4456C16.2699 19.3928 16.3486 19.3603 16.4317 19.3522C16.5147 19.3442 16.5983 19.3609 16.6718 19.4004C16.7453 19.4398 16.8054 19.5002 16.8446 19.5738C16.8971 19.6726 16.9082 19.7881 16.8756 19.8951C16.843 20.002 16.7693 20.0917 16.6707 20.1444ZM16.0098 18.9034C15.9362 18.9426 15.8526 18.9591 15.7696 18.9508C15.6866 18.9425 15.6079 18.9098 15.5435 18.8568C15.4791 18.8037 15.4318 18.7328 15.4077 18.6529C15.3836 18.5731 15.3838 18.4878 15.4081 18.4081C15.4324 18.3283 15.4799 18.2575 15.5444 18.2046C15.609 18.1518 15.6878 18.1193 15.7708 18.1113C15.8538 18.1032 15.9374 18.1199 16.0109 18.1594C16.0844 18.1988 16.1446 18.2592 16.1838 18.3328C16.2362 18.4316 16.2474 18.5471 16.2147 18.6541C16.1821 18.761 16.1084 18.8507 16.0098 18.9034ZM17.9115 19.4834C17.8379 19.5226 17.7543 19.5391 17.6713 19.5308C17.5883 19.5225 17.5096 19.4898 17.4452 19.4368C17.3808 19.3838 17.3335 19.3128 17.3095 19.233C17.2854 19.1531 17.2855 19.0679 17.3098 18.9881C17.3342 18.9083 17.3816 18.8375 17.4462 18.7847C17.5107 18.7318 17.5895 18.6993 17.6725 18.6913C17.7555 18.6832 17.8391 18.7 17.9126 18.7394C17.9861 18.7788 18.0463 18.8392 18.0855 18.9128C18.1379 19.0116 18.1491 19.1271 18.1165 19.2341C18.0838 19.3411 18.0101 19.4307 17.9115 19.4834ZM17.2506 18.2424C17.177 18.2816 17.0934 18.2981 17.0104 18.2898C16.9274 18.2815 16.8487 18.2488 16.7843 18.1958C16.7199 18.1428 16.6727 18.0718 16.6486 17.992C16.6245 17.9121 16.6246 17.8269 16.6489 17.7471C16.6733 17.6673 16.7207 17.5965 16.7853 17.5437C16.8498 17.4908 16.9286 17.4583 17.0116 17.4503C17.0947 17.4422 17.1782 17.459 17.2517 17.4984C17.3252 17.5379 17.3854 17.5982 17.4246 17.6718C17.4771 17.7706 17.4882 17.8861 17.4556 17.9931C17.423 18.1001 17.3493 18.1897 17.2506 18.2424ZM19.1523 18.8225C19.0787 18.8617 18.9951 18.8782 18.9121 18.8699C18.8291 18.8616 18.7504 18.8288 18.686 18.7758C18.6216 18.7228 18.5744 18.6519 18.5503 18.572C18.5262 18.4921 18.5263 18.4069 18.5507 18.3271C18.575 18.2473 18.6224 18.1765 18.687 18.1237C18.7516 18.0709 18.8303 18.0384 18.9134 18.0303C18.9964 18.0223 19.0799 18.039 19.1534 18.0784C19.2269 18.1179 19.2871 18.1782 19.3263 18.2519C19.3788 18.3506 19.3899 18.4662 19.3573 18.5731C19.3247 18.6801 19.251 18.7698 19.1523 18.8225ZM18.4915 17.5815C18.4178 17.6207 18.3342 17.6372 18.2512 17.6289C18.1682 17.6206 18.0896 17.5878 18.0252 17.5348C17.9608 17.4818 17.9135 17.4109 17.8894 17.331C17.8653 17.2511 17.8655 17.1659 17.8898 17.0861C17.9141 17.0063 17.9616 16.9355 18.0261 16.8827C18.0907 16.8299 18.1695 16.7974 18.2525 16.7893C18.3355 16.7813 18.4191 16.798 18.4926 16.8375C18.5661 16.8769 18.6262 16.9372 18.6655 17.0109C18.7179 17.1096 18.729 17.2252 18.6964 17.3321C18.6638 17.4391 18.5901 17.5288 18.4915 17.5815ZM18.0626 15.5797C18.0799 15.6123 18.0907 15.648 18.0943 15.6847C18.0978 15.7215 18.0941 15.7586 18.0834 15.7939C18.0726 15.8292 18.055 15.8621 18.0315 15.8906C18.008 15.9191 17.9792 15.9427 17.9466 15.9601L14.9686 17.5464C14.936 17.5638 14.9003 17.5745 14.8635 17.5781C14.8268 17.5817 14.7897 17.5779 14.7544 17.5672C14.719 17.5564 14.6862 17.5388 14.6577 17.5153C14.6292 17.4918 14.6056 17.463 14.5882 17.4304L13.9273 16.1894C13.91 16.1568 13.8992 16.1211 13.8957 16.0844C13.8921 16.0476 13.8958 16.0105 13.9066 15.9752C13.9173 15.9398 13.935 15.907 13.9584 15.8785C13.9819 15.85 14.0107 15.8264 14.0433 15.809L17.0214 14.2227C17.0539 14.2053 17.0896 14.1946 17.1264 14.191C17.1631 14.1874 17.2002 14.1911 17.2356 14.2019C17.2709 14.2127 17.3037 14.2303 17.3322 14.2538C17.3607 14.2772 17.3843 14.3061 17.4017 14.3387L18.0626 15.5797Z" fill="#141927"/>
</svg>
