<svg width="32" height="32" viewBox="0 0 32 32" fill="none" xmlns="http://www.w3.org/2000/svg">
<path d="M6 21H8V21.5H7V22.5H8V23H6V24H9V20H6V21ZM7 12H8V8H6V9H7V12ZM6 15H7.8L6 17.1V18H9V17H7.2L9 14.9V14H6V15ZM11 9V11H25V9H11ZM11 23H25V21H11V23ZM11 17H25V15H11V17Z" fill="#F9F9F9"/>
<path d="M4 2H28V-2H4V2ZM30 4V28H34V4H30ZM28 30H4V34H28V30ZM2 28V4H-2V28H2ZM4 30C2.89543 30 2 29.1046 2 28H-2C-2 31.3137 0.686292 34 4 34V30ZM30 28C30 29.1046 29.1046 30 28 30V34C31.3137 34 34 31.3137 34 28H30ZM28 2C29.1046 2 30 2.89543 30 4H34C34 0.686292 31.3137 -2 28 -2V2ZM4 -2C0.686292 -2 -2 0.686292 -2 4H2C2 2.89543 2.89543 2 4 2V-2Z" fill="#F9F9F9"/>
</svg>
