<svg width="32" height="32" viewBox="0 0 32 32" fill="none" xmlns="http://www.w3.org/2000/svg">
<path d="M7 21.2505V25.0005H10.75L21.81 13.9405L18.06 10.1905L7 21.2505ZM24.71 11.0405C25.1 10.6505 25.1 10.0205 24.71 9.63055L22.37 7.29055C21.98 6.90055 21.35 6.90055 20.96 7.29055L19.13 9.12055L22.88 12.8705L24.71 11.0405Z" fill="#141927"/>
<path d="M4 2H28V-2H4V2ZM30 4V28H34V4H30ZM28 30H4V34H28V30ZM2 28V4H-2V28H2ZM4 30C2.89543 30 2 29.1046 2 28H-2C-2 31.3137 0.686292 34 4 34V30ZM30 28C30 29.1046 29.1046 30 28 30V34C31.3137 34 34 31.3137 34 28H30ZM28 2C29.1046 2 30 2.89543 30 4H34C34 0.686292 31.3137 -2 28 -2V2ZM4 -2C0.686292 -2 -2 0.686292 -2 4H2C2 2.89543 2.89543 2 4 2V-2Z" fill="#141927"/>
</svg>
