<svg width="33" height="32" viewBox="0 0 33 32" fill="none" xmlns="http://www.w3.org/2000/svg">
<path d="M24.5002 10.6668H23.1668V8.00016C23.1668 4.32016 20.1802 1.3335 16.5002 1.3335C12.8202 1.3335 9.8335 4.32016 9.8335 8.00016V10.6668H8.50016C7.0335 10.6668 5.8335 11.8668 5.8335 13.3335V26.6668C5.8335 28.1335 7.0335 29.3335 8.50016 29.3335H24.5002C25.9668 29.3335 27.1668 28.1335 27.1668 26.6668V13.3335C27.1668 11.8668 25.9668 10.6668 24.5002 10.6668ZM16.5002 22.6668C15.0335 22.6668 13.8335 21.4668 13.8335 20.0002C13.8335 18.5335 15.0335 17.3335 16.5002 17.3335C17.9668 17.3335 19.1668 18.5335 19.1668 20.0002C19.1668 21.4668 17.9668 22.6668 16.5002 22.6668ZM20.6335 10.6668H12.3668V8.00016C12.3668 5.72016 14.2202 3.86683 16.5002 3.86683C18.7802 3.86683 20.6335 5.72016 20.6335 8.00016V10.6668Z" fill="#A1A3A9"/>
</svg>
