<svg width="32" height="32" viewBox="0 0 32 32" fill="none" xmlns="http://www.w3.org/2000/svg">
<path d="M0 4C0 1.79086 1.79086 0 4 0H28C30.2091 0 32 1.79086 32 4V28C32 30.2091 30.2091 32 28 32H4C1.79086 32 0 30.2091 0 28V4Z" fill="#F2B90F"/>
<path d="M19.5 18H18.71L18.43 17.73C19.41 16.59 20 15.11 20 13.5C20 9.91 17.09 7 13.5 7C9.91 7 7 9.91 7 13.5C7 17.09 9.91 20 13.5 20C15.11 20 16.59 19.41 17.73 18.43L18 18.71V19.5L23 24.49L24.49 23L19.5 18ZM13.5 18C11.01 18 9 15.99 9 13.5C9 11.01 11.01 9 13.5 9C15.99 9 18 11.01 18 13.5C18 15.99 15.99 18 13.5 18Z" fill="#141927"/>
<path d="M4 2H28V-2H4V2ZM30 4V28H34V4H30ZM28 30H4V34H28V30ZM2 28V4H-2V28H2ZM4 30C2.89543 30 2 29.1046 2 28H-2C-2 31.3137 0.686292 34 4 34V30ZM30 28C30 29.1046 29.1046 30 28 30V34C31.3137 34 34 31.3137 34 28H30ZM28 2C29.1046 2 30 2.89543 30 4H34C34 0.686292 31.3137 -2 28 -2V2ZM4 -2C0.686292 -2 -2 0.686292 -2 4H2C2 2.89543 2.89543 2 4 2V-2Z" fill="#141927"/>
</svg>
