<svg width="32" height="32" viewBox="0 0 32 32" fill="none" xmlns="http://www.w3.org/2000/svg">
<path d="M0 4C0 1.79086 1.79086 0 4 0H28C30.2091 0 32 1.79086 32 4V28C32 30.2091 30.2091 32 28 32H4C1.79086 32 0 30.2091 0 28V4Z" fill="#F2B90F"/>
<path d="M18.9396 8.6598H14.2196L16.5796 6.2998L18.9396 8.6598ZM14.2496 23.3698H18.9096L16.5796 25.6998L14.2496 23.3698ZM10.0996 10.2698L5.59961 21.7298H7.43961L8.35961 19.2798H13.4696L14.3896 21.7298H16.2296L11.7396 10.2698H10.0996ZM8.96961 17.6398L10.9096 12.4598L12.8496 17.6398H8.96961ZM19.7296 20.1398H25.8496V21.7298H17.3196V20.4398L23.2396 11.8798H17.3596V10.2798H25.6596V11.5398L19.7296 20.1398Z" fill="#141927"/>
<path d="M4 2H28V-2H4V2ZM30 4V28H34V4H30ZM28 30H4V34H28V30ZM2 28V4H-2V28H2ZM4 30C2.89543 30 2 29.1046 2 28H-2C-2 31.3137 0.686292 34 4 34V30ZM30 28C30 29.1046 29.1046 30 28 30V34C31.3137 34 34 31.3137 34 28H30ZM28 2C29.1046 2 30 2.89543 30 4H34C34 0.686292 31.3137 -2 28 -2V2ZM4 -2C0.686292 -2 -2 0.686292 -2 4H2C2 2.89543 2.89543 2 4 2V-2Z" fill="#141927"/>
</svg>
